<svg width="32" height="32" viewBox="0 0 32 32" fill="none" xmlns="http://www.w3.org/2000/svg">
<path d="M10.1802 4.38018C10.9009 5.0841 11.3294 6.03404 11.3802 7.04018L15.0402 3.40018C15.1659 3.25926 15.32 3.14649 15.4923 3.06928C15.6646 2.99206 15.8513 2.95215 16.0402 2.95215C16.229 2.95215 16.4157 2.99206 16.5881 3.06928C16.7604 3.14649 16.9145 3.25926 17.0402 3.40018L20.0002 6.48018C19.5798 6.68405 19.1949 6.95416 18.8602 7.28018C18.1478 8.06358 17.7644 9.09118 17.7895 10.1497C17.8147 11.2083 18.2464 12.2165 18.9951 12.9653C19.7438 13.714 20.7521 14.1457 21.8106 14.1708C22.8692 14.1959 23.8968 13.8125 24.6802 13.1002C25.0062 12.7655 25.2763 12.3806 25.4802 11.9602L28.6002 15.0402C28.7411 15.1659 28.8539 15.32 28.9311 15.4923C29.0083 15.6646 29.0482 15.8513 29.0482 16.0402C29.0482 16.229 29.0083 16.4157 28.9311 16.5881C28.8539 16.7604 28.7411 16.9145 28.6002 17.0402L24.9602 20.6202C25.7486 20.6679 26.5064 20.9422 27.1426 21.4103C27.7788 21.8784 28.2662 22.5203 28.5463 23.2588C28.8263 23.9973 28.8872 24.801 28.7214 25.5732C28.5556 26.3454 28.1703 27.0534 27.6118 27.6118C27.0534 28.1703 26.3454 28.5556 25.5732 28.7214C24.801 28.8872 23.9973 28.8263 23.2588 28.5463C22.5203 28.2662 21.8784 27.7788 21.4103 27.1426C20.9422 26.5064 20.6679 25.7486 20.6202 24.9602L16.9602 28.6002C16.8345 28.7411 16.6804 28.8539 16.5081 28.9311C16.3357 29.0083 16.149 29.0482 15.9602 29.0482C15.7713 29.0482 15.5846 29.0083 15.4123 28.9311C15.24 28.8539 15.0859 28.7411 14.9602 28.6002L12.0002 25.5202C12.4206 25.3163 12.8055 25.0462 13.1402 24.7202C13.912 23.9431 14.3434 22.8913 14.3397 21.796C14.3359 20.7008 13.8973 19.652 13.1202 18.8802C12.3431 18.1084 11.2913 17.6769 10.196 17.6807C9.10083 17.6844 8.05196 18.1231 7.28018 18.9002C6.95416 19.2349 6.68405 19.6198 6.48018 20.0402L3.40018 16.9602C3.25926 16.8345 3.14649 16.6804 3.06928 16.5081C2.99206 16.3357 2.95215 16.149 2.95215 15.9602C2.95215 15.7713 2.99206 15.5846 3.06928 15.4123C3.14649 15.24 3.25926 15.0859 3.40018 14.9602L7.04018 11.3802C6.03404 11.3294 5.0841 10.9009 4.38018 10.1802C3.61106 9.41106 3.17896 8.3679 3.17896 7.28018C3.17896 6.19247 3.61106 5.14931 4.38018 4.38018C5.14931 3.61106 6.19247 3.17896 7.28018 3.17896C8.3679 3.17896 9.41106 3.61106 10.1802 4.38018V4.38018Z" stroke="#FC7D01" stroke-width="2" stroke-linecap="round" stroke-linejoin="round"/>
</svg>
