<svg width="43" height="72" viewBox="0 0 43 72" fill="none" xmlns="http://www.w3.org/2000/svg">
<path d="M13.1941 31.5L12.7779 32.9411L13.1941 31.5ZM29.9393 71.0607C30.5251 71.6464 31.4749 71.6464 32.0607 71.0607L41.6066 61.5147C42.1924 60.9289 42.1924 59.9792 41.6066 59.3934C41.0208 58.8076 40.0711 58.8076 39.4853 59.3934L31 67.8787L22.5147 59.3934C21.9289 58.8076 20.9792 58.8076 20.3934 59.3934C19.8076 59.9792 19.8076 60.9289 20.3934 61.5147L29.9393 71.0607ZM0.82199 0.833063C0.720526 1.73909 0.637678 2.7382 0.58144 3.80595L3.57729 3.96374C3.6306 2.95144 3.70881 2.01117 3.80335 1.16694L0.82199 0.833063ZM0.565447 9.74822C0.655819 11.6776 0.845293 13.6867 1.16762 15.682L4.12922 15.2036C3.82753 13.336 3.64803 11.4411 3.56216 9.60785L0.565447 9.74822ZM2.57144 21.5475C3.23469 23.5447 4.0964 25.4493 5.2094 27.13L7.71064 25.4735C6.77639 24.0628 6.0193 22.4109 5.41854 20.602L2.57144 21.5475ZM9.76914 31.6271C10.6898 32.1831 11.6917 32.6274 12.7779 32.9411L13.6103 30.0589C12.7799 29.8191 12.0191 29.4813 11.32 29.0591L9.76914 31.6271ZM12.7779 32.9411C13.6427 33.1909 14.4631 33.4946 15.2415 33.8481L16.4819 31.1165C15.5694 30.7021 14.6126 30.3484 13.6103 30.0589L12.7779 32.9411ZM19.6127 36.6953C20.9034 37.8414 22.0486 39.1851 23.06 40.7033L25.5567 39.0401C24.4187 37.3317 23.1082 35.7872 21.6046 34.4521L19.6127 36.6953ZM25.5831 45.4688C26.2644 47.0922 26.8453 48.8295 27.3345 50.6599L30.2328 49.8853C29.7133 47.9415 29.0902 46.0731 28.3493 44.3078L25.5831 45.4688ZM28.482 56.0761C28.7743 57.8712 28.9976 59.7204 29.1594 61.6064L32.1484 61.3499C31.9808 59.3968 31.7488 57.4719 31.443 55.594L28.482 56.0761ZM29.4646 67.1948C29.4885 68.1265 29.5 69.0622 29.5 70H32.5C32.5 69.0377 32.4882 68.0763 32.4636 67.1178L29.4646 67.1948Z" fill="#FC7D01"/>
</svg>
