<svg width="152" height="45" viewBox="0 0 152 45" fill="none" xmlns="http://www.w3.org/2000/svg">
<path d="M39.5 5.1232L39.1132 3.67391C38.997 3.70494 38.8848 3.74986 38.7793 3.80769L39.5 5.1232ZM7.70454 43.7562C8.12216 44.4716 9.0407 44.7131 9.75617 44.2955L21.4153 37.49C22.1308 37.0723 22.3722 36.1538 21.9546 35.4383C21.537 34.7229 20.6184 34.4814 19.903 34.899L9.53929 40.9484L3.48996 30.5847C3.07234 29.8692 2.1538 29.6278 1.43834 30.0454C0.722876 30.463 0.481426 31.3816 0.899046 32.097L7.70454 43.7562ZM10.4507 43.3813C10.7081 42.4022 10.9962 41.4379 11.3124 40.4887L8.46625 39.5405C8.13016 40.5493 7.82349 41.5755 7.54928 42.6187L10.4507 43.3813ZM13.57 34.8847C14.4448 33.0375 15.4179 31.2604 16.4646 29.5573L13.9088 27.9864C12.809 29.7758 11.7832 31.6486 10.8587 33.6006L13.57 34.8847ZM19.9004 24.5433C21.1553 22.8877 22.4644 21.3235 23.7965 19.8556L21.5751 17.8395C20.1876 19.3682 18.8215 21.0003 17.5096 22.731L19.9004 24.5433ZM28.0826 15.5107C29.6578 14.0396 31.2169 12.7102 32.709 11.5305L30.8485 9.17713C29.2942 10.4059 27.6725 11.7888 26.0349 13.3182L28.0826 15.5107ZM37.6466 7.98094C38.5881 7.37397 39.4532 6.85918 40.2207 6.4387L38.7793 3.80769C37.942 4.26641 37.0153 4.8185 36.021 5.45952L37.6466 7.98094ZM39.8868 6.57248C40.8486 6.31581 41.8042 6.07672 42.7537 5.85467L42.0705 2.93349C41.0907 3.16264 40.105 3.40926 39.1132 3.67391L39.8868 6.57248ZM48.4946 4.70256C50.4534 4.37462 52.3851 4.11804 54.2901 3.92764L53.9918 0.942514C52.021 1.13948 50.0235 1.40483 47.9992 1.74374L48.4946 4.70256ZM60.133 3.543C62.1159 3.48015 64.0691 3.48715 65.9928 3.55776L66.1028 0.559781C64.1119 0.486705 62.0904 0.479449 60.0379 0.54451L60.133 3.543ZM71.8305 3.97016C73.7948 4.17541 75.7273 4.44422 77.6283 4.76934L78.134 1.81228C76.1708 1.47651 74.1737 1.19866 72.1423 0.986409L71.8305 3.97016ZM83.38 5.93991C85.3028 6.3932 87.1919 6.9001 89.0477 7.45233L89.9034 4.57694C87.9951 4.00911 86.0502 3.48716 84.0684 3.01995L83.38 5.93991ZM94.6371 9.27991C96.5051 9.9446 98.3372 10.6495 100.134 11.3852L101.271 8.60885C99.4341 7.85687 97.5582 7.13507 95.6429 6.45352L94.6371 9.27991ZM105.545 13.7325C107.36 14.5622 109.136 15.4151 110.874 16.2803L112.21 13.5946C110.447 12.7167 108.641 11.8493 106.792 11.0041L105.545 13.7325ZM116.143 18.9901C117.925 19.9329 119.663 20.876 121.359 21.8064L122.802 19.176C121.098 18.2414 119.345 17.2906 117.546 16.3384L116.143 18.9901ZM126.576 24.6843C128.378 25.6788 130.132 26.6401 131.833 27.5459L133.243 24.8978C131.562 24.003 129.825 23.0506 128.025 22.0576L126.576 24.6843ZM137.198 30.2782C139.123 31.2008 140.986 32.0164 142.784 32.6842L143.828 29.872C142.14 29.2449 140.365 28.469 138.495 27.5729L137.198 30.2782ZM148.806 34.3563C149.89 34.5347 150.955 34.6313 152 34.6313V31.6313C151.14 31.6313 150.238 31.5517 149.293 31.3961L148.806 34.3563Z" fill="#FC7D01"/>
</svg>
