<svg width="202" height="135" viewBox="0 0 202 135" fill="none" xmlns="http://www.w3.org/2000/svg">
<path d="M125.5 52.1709L126.922 51.6938L125.5 52.1709ZM113 115.754L111.816 114.833C111.836 114.807 111.857 114.782 111.879 114.757L113 115.754ZM77.5 132.146L77.9249 130.708L77.5 132.146ZM67.5 72.0406L66.9013 70.6653L67.5 72.0406ZM200.834 104.572C201.522 105.032 201.707 105.964 201.247 106.653L193.745 117.876C193.284 118.565 192.353 118.75 191.664 118.289C190.975 117.829 190.79 116.897 191.25 116.209L197.919 106.232L187.943 99.5636C187.254 99.1032 187.069 98.1716 187.53 97.4829C187.99 96.7942 188.922 96.6091 189.61 97.0695L200.834 104.572ZM200.292 107.29C199.289 107.49 198.291 107.66 197.297 107.804L196.869 104.834C197.811 104.698 198.757 104.537 199.708 104.348L200.292 107.29ZM191.288 108.347C189.256 108.424 187.244 108.391 185.25 108.262L185.445 105.268C187.34 105.391 189.25 105.422 191.176 105.349L191.288 108.347ZM179.262 107.581C177.281 107.261 175.318 106.854 173.374 106.369L174.099 103.458C175.967 103.924 177.847 104.314 179.739 104.619L179.262 107.581ZM167.615 104.704C165.727 104.085 163.855 103.403 161.998 102.668L163.102 99.8782C164.908 100.593 166.724 101.255 168.549 101.853L167.615 104.704ZM156.512 100.335C154.711 99.5185 152.922 98.6616 151.146 97.7744L152.486 95.0904C154.234 95.9631 155.988 96.8036 157.75 97.6022L156.512 100.335ZM145.881 95.0498C144.142 94.1208 142.412 93.1718 140.691 92.2129L142.151 89.5922C143.861 90.5448 145.575 91.485 147.294 92.4035L145.881 95.0498ZM135.551 89.3149C133.834 88.3395 132.136 87.3695 130.434 86.4035L131.914 83.7943C133.615 84.7592 135.327 85.7371 137.033 86.7068L135.551 89.3149ZM125.311 83.5261C123.589 82.5724 121.873 81.6395 120.161 80.7373L121.56 78.0833C123.295 78.9976 125.03 79.9407 126.765 80.9017L125.311 83.5261ZM114.959 78.0953C113.191 77.2354 111.428 76.4205 109.667 75.6614L110.854 72.9064C112.663 73.6861 114.469 74.5206 116.271 75.3975L114.959 78.0953ZM104.282 73.5245C102.449 72.8639 100.618 72.2769 98.7869 71.776L99.5788 68.8823C101.493 69.4063 103.4 70.0177 105.299 70.7022L104.282 73.5245ZM93.1858 70.5244C91.2975 70.2017 89.4082 69.9837 87.5154 69.8834L87.6741 66.8876C89.6911 66.9945 91.6964 67.2264 93.6911 67.5672L93.1858 70.5244ZM81.8328 69.9486C79.9668 70.0939 78.0928 70.3654 76.2085 70.7764L75.5691 67.8454C77.59 67.4045 79.5999 67.1134 81.5999 66.9577L81.8328 69.9486ZM70.7664 72.3524C69.8806 72.6733 68.9914 73.0273 68.0987 73.4159L66.9013 70.6653C67.8511 70.2518 68.7988 69.8744 69.7447 69.5317L70.7664 72.3524ZM68.0987 73.4159C67.2005 73.807 66.3663 74.2484 65.5927 74.735L63.9955 72.1955C64.9001 71.6266 65.8682 71.115 66.9013 70.6653L68.0987 73.4159ZM61.4188 78.4325C60.2467 79.8815 59.3147 81.5186 58.6053 83.3056L55.817 82.1986C56.6275 80.1569 57.7066 78.2515 59.0864 76.5458L61.4188 78.4325ZM57.1604 88.8542C56.8905 90.7205 56.7957 92.6736 56.8619 94.6776L53.8635 94.7765C53.7922 92.6156 53.8934 90.4845 54.1912 88.4249L57.1604 88.8542ZM57.4806 100.533C57.8164 102.457 58.2787 104.387 58.8528 106.292L55.9804 107.157C55.3733 105.143 54.8827 103.096 54.5253 101.049L57.4806 100.533ZM60.882 111.865C61.6712 113.705 62.5576 115.482 63.5248 117.164L60.924 118.659C59.897 116.873 58.9588 114.991 58.125 113.048L60.882 111.865ZM66.7926 122.078C68.0382 123.694 69.3565 125.143 70.7228 126.384L68.7053 128.605C67.1924 127.23 65.756 125.647 64.4165 123.909L66.7926 122.078ZM75.3655 129.673C76.2179 130.109 77.0725 130.456 77.9249 130.708L77.0751 133.585C76.0281 133.276 75.0005 132.857 73.9975 132.343L75.3655 129.673ZM77.9249 130.708C78.9666 131.015 80.0095 131.228 81.0506 131.355L80.6878 134.333C79.4856 134.186 78.2796 133.941 77.0751 133.585L77.9249 130.708ZM87.4538 131.13C89.5723 130.745 91.6616 130.074 93.6877 129.196L94.8808 131.948C92.6784 132.903 90.3687 133.649 87.9909 134.082L87.4538 131.13ZM99.513 126.036C101.43 124.79 103.225 123.419 104.857 122.022L106.808 124.301C105.089 125.772 103.189 127.225 101.148 128.551L99.513 126.036ZM109.672 117.365C110.494 116.463 111.213 115.608 111.816 114.833L114.184 116.675C113.529 117.517 112.759 118.432 111.888 119.386L109.672 117.365ZM111.879 114.757C112.402 114.169 113.004 113.468 113.66 112.657L115.992 114.545C115.304 115.395 114.672 116.131 114.121 116.751L111.879 114.757ZM116.953 108.203C117.907 106.789 118.889 105.215 119.853 103.487L122.473 104.948C121.464 106.756 120.437 108.403 119.439 109.881L116.953 108.203ZM122.339 98.5406C123.066 96.9217 123.755 95.2057 124.381 93.3962L127.216 94.3773C126.559 96.2755 125.837 98.0743 125.075 99.7701L122.339 98.5406ZM125.948 88.1015C126.377 86.3624 126.74 84.5534 127.021 82.6769L129.988 83.1215C129.692 85.0931 129.311 86.9934 128.86 88.8199L125.948 88.1015ZM127.584 77.1837C127.684 75.3946 127.706 73.5527 127.638 71.6596L130.636 71.5523C130.707 73.5382 130.684 75.4716 130.58 77.3507L127.584 77.1837ZM127.194 66.1467C126.972 64.3661 126.669 62.545 126.276 60.6845L129.212 60.0648C129.622 62.0073 129.939 63.9112 130.171 65.7752L127.194 66.1467ZM124.915 55.3027C124.656 54.4258 124.377 53.5409 124.078 52.6481L126.922 51.6938C127.233 52.6216 127.523 53.5419 127.792 54.4546L124.915 55.3027ZM124.078 52.6481C123.789 51.7869 123.452 50.9378 123.068 50.1005L125.794 48.8497C126.221 49.7806 126.598 50.7286 126.922 51.6938L124.078 52.6481ZM120.3 45.3351C119.259 43.8627 118.069 42.4296 116.739 41.0354L118.91 38.9648C120.33 40.4542 121.616 41.9998 122.75 43.6035L120.3 45.3351ZM112.619 37.1979C111.21 36.0207 109.701 34.8762 108.102 33.7641L109.815 31.3013C111.479 32.4589 113.059 33.6565 114.542 34.8954L112.619 37.1979ZM103.314 30.6847C101.709 29.7273 100.038 28.7974 98.3094 27.8947L99.6978 25.2354C101.473 26.1622 103.193 27.1196 104.851 28.1083L103.314 30.6847ZM93.1654 25.3649C91.4548 24.5714 89.7008 23.8015 87.9095 23.0549L89.0636 20.2858C90.8888 21.0465 92.6791 21.8322 94.4279 22.6435L93.1654 25.3649ZM82.5596 20.9333C80.7782 20.2607 78.9688 19.6093 77.1369 18.9787L78.1134 16.1421C79.9715 16.7817 81.8087 17.4431 83.6193 18.1267L82.5596 20.9333ZM71.6574 17.1736C69.8306 16.5975 67.9881 16.041 66.135 15.5038L66.9704 12.6224C68.8447 13.1659 70.7096 13.7291 72.5596 14.3125L71.6574 17.1736ZM60.5727 13.9553C58.7107 13.4577 56.8436 12.9788 54.9766 12.5182L55.6952 9.60554C57.58 10.0705 59.4658 10.5542 61.3473 11.057L60.5727 13.9553ZM49.3529 11.1845C47.4633 10.754 45.5795 10.342 43.707 9.94804L44.3246 7.01229C46.2128 7.40952 48.1129 7.82511 50.0194 8.25952L49.3529 11.1845ZM38.0446 8.8039C36.1277 8.4322 34.2292 8.07966 32.3552 7.74578L32.8814 4.79229C34.7699 5.12876 36.6834 5.48408 38.6157 5.85876L38.0446 8.8039ZM26.6469 6.77263C24.7046 6.45632 22.7977 6.16082 20.9339 5.88555L21.3722 2.91774C23.2505 3.19514 25.1719 3.49291 27.1291 3.81164L26.6469 6.77263ZM15.2171 5.08509C13.2304 4.82233 11.3083 4.58445 9.46183 4.37059L9.80697 1.39051C11.6697 1.60624 13.6077 1.84612 15.6105 2.11099L15.2171 5.08509ZM3.72953 3.75806C2.74525 3.66218 1.79143 3.57435 0.870274 3.49438L1.12973 0.50562C2.06167 0.586522 3.02597 0.675326 4.0204 0.772199L3.72953 3.75806Z" fill="#FC7D01"/>
</svg>
