<svg width="212" height="82" viewBox="0 0 212 82" fill="none" xmlns="http://www.w3.org/2000/svg">
<path d="M142.485 41.5L141.922 42.8905C142.12 42.9706 142.333 43.0075 142.546 42.9987L142.485 41.5ZM101.639 44L102.998 44.6347L101.639 44ZM122.56 26L123.198 24.6427L122.56 26ZM71.7517 41.5L70.3691 40.9184L71.7517 41.5ZM31.4041 55L31.8237 53.5599C31.6783 53.5175 31.5272 53.4974 31.3757 53.5003L31.4041 55ZM4.56325 80.431C4.80126 81.2245 5.63747 81.6748 6.43097 81.4368L19.3618 77.558C20.1553 77.32 20.6056 76.4838 20.3675 75.6903C20.1295 74.8968 19.2933 74.4465 18.4998 74.6845L7.00578 78.1323L3.55801 66.6382C3.32 65.8447 2.48379 65.3944 1.69029 65.6325C0.896791 65.8705 0.446487 66.7067 0.684505 67.5002L4.56325 80.431ZM7.32068 80.7112C7.82548 79.7738 8.32131 78.8686 8.8089 77.9946L6.18907 76.5329C5.69365 77.4209 5.19064 78.3393 4.67932 79.2888L7.32068 80.7112ZM11.9125 72.6763C13.0766 70.7815 14.1948 69.0834 15.2791 67.5664L12.8384 65.8219C11.7064 67.4056 10.5498 69.1633 9.35634 71.106L11.9125 72.6763ZM19.0548 62.8637C20.5681 61.2256 22.0231 59.963 23.4565 59.0112L21.797 56.5119C20.125 57.6221 18.4913 59.0527 16.8512 60.8279L19.0548 62.8637ZM28.6197 56.8065C29.5265 56.6182 30.4601 56.5181 31.4325 56.4997L31.3757 53.5003C30.2324 53.5219 29.1128 53.6401 28.0098 53.8691L28.6197 56.8065ZM30.9844 56.4401C31.8795 56.7009 32.8581 56.9495 33.9042 57.1756L34.538 54.2433C33.5572 54.0313 32.6473 53.7999 31.8237 53.5599L30.9844 56.4401ZM39.831 58.093C41.7425 58.2776 43.7601 58.3672 45.8248 58.3216L45.7585 55.3223C43.8224 55.3651 41.9237 55.2811 40.1193 55.1069L39.831 58.093ZM51.8287 57.7841C53.8125 57.4619 55.7951 56.9837 57.7244 56.3128L56.7391 53.4792C54.9933 54.0863 53.1815 54.5251 51.3478 54.8229L51.8287 57.7841ZM63.2777 53.6989C65.0039 52.6352 66.628 51.3544 68.0987 49.8246L65.936 47.7455C64.6518 49.0813 63.2285 50.2054 61.7039 51.1449L63.2777 53.6989ZM71.7784 44.8566C72.2707 43.9819 72.7239 43.0575 73.1344 42.0816L70.3691 40.9184C70.0021 41.7909 69.5991 42.6121 69.1641 43.3851L71.7784 44.8566ZM73.1344 42.0816C73.5143 41.1784 73.9202 40.3137 74.3503 39.4864L71.6883 38.1028C71.2201 39.0037 70.7798 39.9419 70.3691 40.9184L73.1344 42.0816ZM77.4033 34.6994C78.5993 33.1591 79.9024 31.7953 81.2918 30.5951L79.3307 28.3249C77.7918 29.6542 76.3518 31.162 75.0338 32.8595L77.4033 34.6994ZM85.9173 27.3472C87.574 26.4136 89.3098 25.6491 91.1006 25.041L90.136 22.2003C88.179 22.8648 86.2721 23.7037 84.4445 24.7336L85.9173 27.3472ZM96.6392 23.6691C98.5235 23.3613 100.437 23.1988 102.354 23.1685L102.307 20.1689C100.252 20.2014 98.1925 20.3756 96.1556 20.7083L96.6392 23.6691ZM108.106 23.4631C110.034 23.6885 111.936 24.0365 113.782 24.4921L114.501 21.5795C112.535 21.0944 110.51 20.7236 108.454 20.4833L108.106 23.4631ZM119.28 26.2258C120.187 26.5781 121.069 26.9561 121.921 27.3573L123.198 24.6427C122.282 24.2114 121.336 23.8062 120.366 23.4294L119.28 26.2258ZM121.921 27.3573C122.725 27.7352 123.458 28.1532 124.126 28.6053L125.807 26.1207C125.006 25.5783 124.137 25.0843 123.198 24.6427L121.921 27.3573ZM127.671 32.0595C128.632 33.4233 129.318 34.9439 129.765 36.5752L132.659 35.7822C132.13 33.8516 131.304 32.0082 130.124 30.3324L127.671 32.0595ZM130.418 41.646C130.424 43.3512 130.241 45.1006 129.902 46.843L132.847 47.4165C133.219 45.5054 133.425 43.5594 133.418 41.6355L130.418 41.646ZM128.472 51.9249C127.847 53.6225 127.1 55.244 126.272 56.7326L128.894 58.191C129.798 56.5657 130.61 54.8029 131.288 52.9609L128.472 51.9249ZM123.329 61.0535C122.743 61.7468 122.152 62.3577 121.565 62.8771L123.554 65.1229C124.263 64.4953 124.955 63.7779 125.621 62.9894L123.329 61.0535ZM121.565 62.8771C120.885 63.4798 120.111 63.9378 119.267 64.2602L120.337 67.0628C121.5 66.6187 122.589 65.9779 123.554 65.1229L121.565 62.8771ZM113.694 64.6421C111.847 64.3062 109.967 63.5641 108.251 62.4747L106.643 65.0076C108.667 66.2921 110.907 67.1846 113.157 67.5937L113.694 64.6421ZM103.966 58.469C102.844 56.9112 102.04 55.1312 101.69 53.1844L98.7376 53.7154C99.1741 56.1426 100.172 58.3347 101.531 60.222L103.966 58.469ZM101.974 47.4231C102.214 46.5213 102.551 45.5908 102.998 44.6347L100.28 43.3653C99.7623 44.4735 99.3634 45.5697 99.0752 46.6495L101.974 47.4231ZM102.998 44.6347C103.355 43.8707 103.781 43.1878 104.267 42.5771L101.92 40.7088C101.285 41.5061 100.735 42.3904 100.28 43.3653L102.998 44.6347ZM108.075 39.5883C109.505 38.8871 111.145 38.3964 112.948 38.0921L112.449 35.134C110.426 35.4754 108.497 36.0401 106.754 36.8945L108.075 39.5883ZM118.213 37.7064C119.957 37.7181 121.758 37.848 123.574 38.0698L123.938 35.092C122.027 34.8585 120.11 34.7191 118.234 34.7064L118.213 37.7064ZM128.92 38.9636C130.735 39.3432 132.512 39.7879 134.205 40.2677L135.023 37.3814C133.269 36.8842 131.423 36.4223 129.534 36.0271L128.92 38.9636ZM139.392 41.9277C140.294 42.2511 141.141 42.5746 141.922 42.8905L143.047 40.1095C142.227 39.7778 141.343 39.4401 140.405 39.1038L139.392 41.9277ZM142.546 42.9987C143.434 42.9621 144.404 42.9113 145.446 42.8453L145.256 39.8513C144.234 39.916 143.286 39.9656 142.423 40.0013L142.546 42.9987ZM151.238 42.3802C153.055 42.2061 154.988 41.9961 157.002 41.7469L156.634 38.7696C154.647 39.0153 152.743 39.2223 150.952 39.3939L151.238 42.3802ZM162.75 40.9561C164.625 40.6716 166.541 40.3545 168.475 40.0025L167.938 37.051C166.035 37.3974 164.148 37.7097 162.3 37.99L162.75 40.9561ZM174.174 38.8692C176.07 38.4584 177.964 38.0121 179.836 37.5281L179.085 34.6236C177.255 35.0967 175.4 35.534 173.539 35.9373L174.174 38.8692ZM185.447 35.9357C187.345 35.3444 189.197 34.7083 190.981 34.0245L189.907 31.2233C188.19 31.8814 186.399 32.4969 184.555 33.0715L185.447 35.9357ZM196.39 31.6852C197.294 31.2423 198.17 30.7825 199.013 30.3053L197.535 27.6947C196.748 28.1401 195.926 28.5721 195.07 28.9911L196.39 31.6852ZM199.013 30.3053C199.902 29.8021 200.733 29.2818 201.51 28.7459L199.807 26.2761C199.106 26.7597 198.35 27.2333 197.535 27.6947L199.013 30.3053ZM206.007 24.8767C207.466 23.2888 208.584 21.6315 209.434 19.9467L206.755 18.5961C206.028 20.0377 205.067 21.4657 203.798 22.8469L206.007 24.8767ZM211.37 14.2735C211.778 12.2363 211.91 10.2514 211.914 8.4032L208.914 8.39785C208.911 10.1103 208.788 11.8904 208.428 13.6836L211.37 14.2735ZM211.633 2.69059C211.557 1.65365 211.5 0.763376 211.5 0H208.5C208.5 0.887619 208.566 1.8806 208.641 2.90959L211.633 2.69059Z" fill="#FC7D01"/>
</svg>
